<svg width="315" height="127" viewBox="0 0 315 127" fill="none" xmlns="http://www.w3.org/2000/svg">
<path d="M80.5781 89.1719C82.8125 89.2031 84.7344 89.7812 86.3438 90.9062C87.9688 92.0156 89.1562 93.5547 89.9062 95.5234C90.6719 97.4766 90.9453 99.6484 90.7266 102.039C90.3672 106.07 88.9609 109.336 86.5078 111.836C84.0703 114.32 81.0547 115.531 77.4609 115.469C75.2578 115.438 73.3516 114.875 71.7422 113.781C70.1328 112.672 68.9453 111.141 68.1797 109.188C67.4141 107.234 67.1406 105.078 67.3594 102.719C67.7656 98.5312 69.1875 95.2031 71.625 92.7344C74.0625 90.2656 77.0469 89.0781 80.5781 89.1719ZM73.8984 105.133C73.9297 106.633 74.2812 107.82 74.9531 108.695C75.625 109.555 76.5703 110 77.7891 110.031C79.8203 110.094 81.4141 109.164 82.5703 107.242C83.7266 105.305 84.2656 102.766 84.1875 99.625C84.125 98.125 83.7578 96.9297 83.0859 96.0391C82.4297 95.1328 81.4844 94.6641 80.25 94.6328C78.2812 94.5703 76.7031 95.5 75.5156 97.4219C74.3438 99.3281 73.8047 101.898 73.8984 105.133ZM107.47 115L113.4 80.875L123.197 80.8984C125.494 80.9453 127.556 81.4688 129.384 82.4688C131.228 83.4531 132.72 84.875 133.861 86.7344C135.002 88.5938 135.689 90.6875 135.923 93.0156C136.048 94.375 136.033 95.7656 135.877 97.1875L135.713 98.4297C135.025 103.43 133.056 107.445 129.806 110.477C126.572 113.492 122.642 115 118.017 115H107.47ZM119.283 86.5703L115.322 109.352L118.181 109.375C121.338 109.375 123.869 108.219 125.775 105.906C127.697 103.594 128.798 100.102 129.08 95.4297L129.127 94.6797C129.173 92.1016 128.681 90.125 127.65 88.75C126.619 87.375 125.08 86.6562 123.033 86.5938L119.283 86.5703ZM166.472 89.1719C168.706 89.2031 170.628 89.7812 172.238 90.9062C173.863 92.0156 175.05 93.5547 175.8 95.5234C176.566 97.4766 176.839 99.6484 176.62 102.039C176.261 106.07 174.855 109.336 172.402 111.836C169.964 114.32 166.948 115.531 163.355 115.469C161.152 115.438 159.245 114.875 157.636 113.781C156.027 112.672 154.839 111.141 154.073 109.188C153.308 107.234 153.034 105.078 153.253 102.719C153.659 98.5312 155.081 95.2031 157.519 92.7344C159.956 90.2656 162.941 89.0781 166.472 89.1719ZM159.792 105.133C159.823 106.633 160.175 107.82 160.847 108.695C161.519 109.555 162.464 110 163.683 110.031C165.714 110.094 167.308 109.164 168.464 107.242C169.62 105.305 170.159 102.766 170.081 99.625C170.019 98.125 169.652 96.9297 168.98 96.0391C168.323 95.1328 167.378 94.6641 166.144 94.6328C164.175 94.5703 162.597 95.5 161.409 97.4219C160.238 99.3281 159.698 101.898 159.792 105.133ZM201.216 109.352H215.7L214.716 115H193.364L199.294 80.875H206.161L201.216 109.352ZM239.78 115H233.123L237.53 89.6406H244.186L239.78 115ZM238.303 83.1953C238.272 82.1484 238.616 81.2812 239.334 80.5938C240.053 79.9062 240.92 79.5625 241.936 79.5625C242.936 79.5312 243.803 79.8359 244.538 80.4766C245.272 81.1172 245.655 81.9453 245.686 82.9609C245.717 83.9297 245.389 84.7734 244.702 85.4922C244.03 86.2109 243.147 86.5859 242.053 86.6172C241.069 86.6484 240.202 86.3516 239.452 85.7266C238.717 85.1016 238.334 84.2578 238.303 83.1953ZM274.5 107.852C274.75 106.602 273.883 105.695 271.898 105.133L269.766 104.594C264.719 103.203 262.266 100.75 262.406 97.2344C262.484 94.8438 263.539 92.8984 265.57 91.3984C267.617 89.8828 270.078 89.1406 272.953 89.1719C275.812 89.2031 278.125 89.9609 279.891 91.4453C281.656 92.9297 282.555 94.9062 282.586 97.375L276.023 97.3516C276.055 95.1797 274.977 94.0781 272.789 94.0469C271.758 94.0469 270.859 94.3047 270.094 94.8203C269.344 95.3359 268.883 96.0312 268.711 96.9062C268.477 98.1562 269.422 99.0391 271.547 99.5547L272.484 99.7656C274.641 100.281 276.289 100.875 277.43 101.547C278.57 102.203 279.445 103.023 280.055 104.008C280.68 104.992 280.969 106.172 280.922 107.547C280.875 109.156 280.352 110.562 279.352 111.766C278.367 112.969 277.008 113.898 275.273 114.555C273.555 115.211 271.742 115.516 269.836 115.469C267.023 115.438 264.68 114.633 262.805 113.055C260.93 111.461 259.977 109.406 259.945 106.891L266.18 106.938C266.242 109.359 267.539 110.586 270.07 110.617C271.289 110.617 272.289 110.367 273.07 109.867C273.867 109.367 274.344 108.695 274.5 107.852ZM311.798 83.4062L310.697 89.6406H314.916L314.048 94.6094H309.83L307.673 107.312C307.58 108.109 307.642 108.719 307.861 109.141C308.08 109.562 308.611 109.789 309.455 109.82C309.705 109.836 310.377 109.797 311.47 109.703L311.002 114.883C309.83 115.273 308.564 115.453 307.205 115.422C305.033 115.391 303.416 114.711 302.353 113.383C301.291 112.055 300.853 110.258 301.041 107.992L303.22 94.6094H299.634L300.502 89.6406H304.087L305.166 83.4062H311.798Z" fill="white"/>
<path fill-rule="evenodd" clip-rule="evenodd" d="M59.2969 21.1719H92.4219L96.0938 0H3.75L0 21.1719H32.5781L31.2607 28.75H57.9859L59.2969 21.1719ZM57.1209 33.75H30.3915L28.3055 45.75H55.045L57.1209 33.75ZM23.438 73.75L26.5671 55.75H53.315L50.2011 73.75H23.438ZM47.6061 88.75H20.8304L16.4844 113.75H43.2812L47.6061 88.75Z" fill="white"/>
</svg>
