<svg width="50" height="50" viewBox="0 0 50 50" fill="none" xmlns="http://www.w3.org/2000/svg">
<path d="M16.5 18C16.5 19.1556 16.2159 20.1292 15.8351 20.7638C15.4364 21.4283 15.0945 21.5 15 21.5C14.9055 21.5 14.5636 21.4283 14.1649 20.7638C13.7841 20.1292 13.5 19.1556 13.5 18C13.5 16.8444 13.7841 15.8708 14.1649 15.2362C14.5636 14.5717 14.9055 14.5 15 14.5C15.0945 14.5 15.4364 14.5717 15.8351 15.2362C16.2159 15.8708 16.5 16.8444 16.5 18Z" stroke="#CCCCCC" stroke-width="3"/>
<path d="M36.5 18C36.5 19.1556 36.2159 20.1292 35.8351 20.7638C35.4364 21.4283 35.0945 21.5 35 21.5C34.9055 21.5 34.5636 21.4283 34.1649 20.7638C33.7841 20.1292 33.5 19.1556 33.5 18C33.5 16.8444 33.7841 15.8708 34.1649 15.2362C34.5636 14.5717 34.9055 14.5 35 14.5C35.0945 14.5 35.4364 14.5717 35.8351 15.2362C36.2159 15.8708 36.5 16.8444 36.5 18Z" stroke="#CCCCCC" stroke-width="3"/>
<rect x="1.5" y="1.5" width="47" height="47" rx="23.5" stroke="#CCCCCC" stroke-width="3"/>
<path d="M37.5 34.7342C37.5 35.7652 36.5858 37.1335 34.1009 38.3331C31.7214 39.4818 28.3288 40.2342 24.5 40.2342C20.6712 40.2342 17.2786 39.4818 14.8991 38.3331C12.4142 37.1335 11.5 35.7652 11.5 34.7342C11.5 34.4656 11.5545 34.3342 11.5918 34.27C11.6286 34.2067 11.7008 34.1186 11.8787 34.0178C12.2936 33.7828 13.0582 33.6009 14.3279 33.5323C15.5587 33.4658 17.0513 33.5119 18.7975 33.58C18.9852 33.5874 19.1755 33.5949 19.3683 33.6026C20.9444 33.6651 22.6839 33.7342 24.5 33.7342C26.3161 33.7342 28.0556 33.6651 29.6317 33.6026C29.8245 33.5949 30.0148 33.5874 30.2025 33.58C31.9487 33.5119 33.4413 33.4658 34.6721 33.5323C35.9418 33.6009 36.7064 33.7828 37.1213 34.0178C37.2992 34.1186 37.3714 34.2067 37.4082 34.27C37.4455 34.3342 37.5 34.4656 37.5 34.7342Z" stroke="#CCCCCC" stroke-width="3"/>
</svg>
